HIERARCHY
ROOT Hips
{
	OFFSET 0.00 0.00 0.00
	CHANNELS 6 Xposition Yposition Zposition Xrotation Yrotation Zrotation
	JOINT Spine
	{
		OFFSET 0.00000 4.88528 0.00000
		CHANNELS 3 Xrotation Yrotation Zrotation
		JOINT Head
		{
			OFFSET 0.00000 16.49416 0.00000
			CHANNELS 3 Xrotation Yrotation Zrotation
			End Site
			{
				OFFSET 0.00000 4.52755 0.00000
			}
		}
		JOINT LeftShoulder
		{
			OFFSET 0.00000 10.66345 0.00000
			CHANNELS 3 Xrotation Yrotation Zrotation
			JOINT LeftArm
			{
				OFFSET 7.53191 0.00000 0.00000
				CHANNELS 3 Xrotation Yrotation Zrotation
				JOINT LeftForeArm
				{
					OFFSET 10.22920 0.00000 0.00000
					CHANNELS 3 Yrotation Zrotation Xrotation
					JOINT LeftHand
					{
						OFFSET 8.67349 0.00000 0.00000
						CHANNELS 3 Xrotation Yrotation Zrotation
						JOINT LeftHandThumb1
						{
							OFFSET 0.00000 0.00000 0.00000
							CHANNELS 3 Xrotation Zrotation Yrotation
							End Site
							{
								OFFSET 0.00000 0.00000 3.93700
							}
						}
						End Site
						{
							OFFSET 3.93700 0.00000 0.00000
						}
					}
				}
			}
		}
		JOINT RightShoulder
		{
			OFFSET 0.00000 10.66345 0.00000
			CHANNELS 3 Xrotation Yrotation Zrotation
			JOINT RightArm
			{
				OFFSET -7.53191 0.00000 0.00000
				CHANNELS 3 Xrotation Yrotation Zrotation
				JOINT RightForeArm
				{
					OFFSET -10.22920 0.00000 0.00000
					CHANNELS 3 Yrotation Zrotation Xrotation
					JOINT RightHand
					{
						OFFSET -8.67349 0.00000 0.00000
						CHANNELS 3 Xrotation Yrotation Zrotation
						JOINT RightHandThumb1
						{
							OFFSET 0.00000 0.00000 0.00000
							CHANNELS 3 Xrotation Zrotation Yrotation
							End Site
							{
								OFFSET 0.00000 0.00000 3.93700
							}
						}
						End Site
						{
							OFFSET -3.93700 0.00000 0.00000
						}
					}
				}
			}
		}
	}
	JOINT LeftUpLeg
	{
		OFFSET 2.67219 0.00000 0.00000
		CHANNELS 3 Xrotation Yrotation Zrotation
		JOINT LeftLeg
		{
			OFFSET 0.00000 -16.26339 0.00000
			CHANNELS 3 Xrotation Yrotation Zrotation
			JOINT LeftFoot
			{
				OFFSET 0.00000 -14.32816 0.00000
				CHANNELS 3 Xrotation Yrotation Zrotation
				JOINT LeftToeBase
				{
					OFFSET 0.00000 -1.30219 4.85985
					CHANNELS 3 Xrotation Yrotation Zrotation
					End Site
					{
						OFFSET 0.00000 0.00000 2.95275
					}
				}
			}
		}
	}
	JOINT RightUpLeg
	{
		OFFSET -2.67219 0.00000 0.00000
		CHANNELS 3 Xrotation Yrotation Zrotation
		JOINT RightLeg
		{
			OFFSET 0.00000 -16.26339 0.00000
			CHANNELS 3 Xrotation Yrotation Zrotation
			JOINT RightFoot
			{
				OFFSET 0.00000 -14.32816 0.00000
				CHANNELS 3 Xrotation Yrotation Zrotation
				JOINT RightToeBase
				{
					OFFSET 0.00000 -1.30219 4.85985
					CHANNELS 3 Xrotation Yrotation Zrotation
					End Site
					{
						OFFSET 0.00000 0.00000 2.95275
					}
				}
			}
		}
	}
}
MOTION
Frames: 23
Frame Time: 0.008333
 2.6455 32.7567 -7.5516 11.6285 2.5196 -0.9547 -13.7014 -5.7753 -1.4850 15.3830 -1.9063 -1.4095 31.6010 35.8338 19.7702 -73.0025 1.5521 -26.9099 2.4305 0.0000 9.5370 0.6303 -4.6747 7.6873 33.1476 -0.0000 26.2537 -9.0927 -5.3809 -34.6025 -18.7075 -0.3129 33.6477 0.2774 -0.0000 16.3517 -0.0148 0.8290 1.0256 32.8623 0.0000 -24.3270 -6.1757 -0.7422 1.9777 -2.8889 -0.0000 -0.0000 -3.5407 9.5129 -17.0413 -5.3667 0.0000 -0.0000 -6.0029 -2.3329 -0.5068 -3.9816 -0.0000 -0.0000 -5.3210 -8.7930 4.3715 0.8118 0.0000 -0.0000
 2.6501 32.7574 -7.5538 11.6124 2.5220 -0.9442 -13.6982 -5.7819 -1.4755 15.5387 -1.8662 -1.4461 31.6362 35.8075 19.7522 -72.9650 1.5833 -27.0111 2.4581 0.0000 9.4391 0.6332 -4.7316 7.6309 33.1476 -0.0000 26.2537 -9.0552 -5.3713 -34.5661 -18.7647 -0.3657 33.7334 0.2786 -0.0000 16.3764 -0.0152 0.8369 1.0378 32.8623 0.0000 -24.3270 -6.1664 -0.7224 1.9596 -2.8855 -0.0000 0.0000 -3.5302 9.4951 -17.0582 -5.4012 0.0000 -0.0000 -5.9863 -2.3261 -0.5239 -3.9922 -0.0000 -0.0000 -5.3052 -8.8100 4.3814 0.8328 -0.0000 0.0000
 2.6535 32.7578 -7.5560 11.6032 2.5310 -0.9417 -13.7069 -5.7821 -1.4610 15.7218 -1.8575 -1.4774 31.6789 35.7676 19.7337 -72.9050 1.5963 -27.1146 2.4854 0.0000 9.3635 0.6305 -4.7452 7.5780 33.1476 -0.0000 26.2537 -9.0267 -5.3671 -34.5243 -18.7671 -0.3798 33.7935 0.2653 -0.0000 16.2862 -0.0156 0.8560 1.0437 32.8623 0.0000 -24.3270 -6.1611 -0.7130 1.9494 -2.8884 0.0000 0.0000 -3.5213 9.4753 -17.0461 -5.4272 -0.0000 0.0000 -5.9799 -2.3409 -0.5296 -3.9946 0.0000 -0.0000 -5.2961 -8.8149 4.3645 0.8197 -0.0000 0.0000
 2.6567 32.7581 -7.5580 11.5960 2.5302 -0.9477 -13.7185 -5.7925 -1.4349 15.9184 -1.8371 -1.5152 31.6998 35.7422 19.7222 -72.8657 1.6395 -27.2299 2.4966 0.0000 9.2914 0.6211 -4.6832 7.5631 33.1476 -0.0000 26.2537 -9.0197 -5.3208 -34.5031 -18.7485 -0.4241 33.8898 0.2424 -0.0000 16.3176 -0.0175 0.8699 1.1497 32.8623 0.0000 -24.3270 -6.1514 -0.7221 1.9521 -2.8977 0.0000 -0.0000 -3.5211 9.4774 -17.0546 -5.3633 -0.0000 0.0000 -5.9770 -2.3428 -0.5267 -3.9950 -0.0000 0.0000 -5.2879 -8.8126 4.3377 0.8124 0.0000 -0.0000
 2.6610 32.7584 -7.5606 11.5886 2.5382 -0.9394 -13.7294 -5.8036 -1.4260 16.1281 -1.8177 -1.5517 31.7554 35.7328 19.6763 -72.8795 1.6535 -27.3512 2.5451 0.0000 9.2491 0.6131 -4.6496 7.5198 33.1476 -0.0000 26.2537 -9.0011 -5.2969 -34.4830 -18.7743 -0.4628 33.9810 0.1965 -0.0000 16.2963 -0.0197 0.9109 1.2364 32.8623 0.0000 -24.3270 -6.1547 -0.7052 1.9358 -2.8884 0.0000 0.0000 -3.5191 9.4523 -17.0586 -5.3874 0.0000 -0.0000 -5.9746 -2.3478 -0.5402 -3.9941 0.0000 -0.0000 -5.2889 -8.8281 4.3206 0.8120 0.0000 0.0000
 2.6643 32.7585 -7.5619 11.5828 2.5447 -0.9405 -13.7458 -5.8103 -1.4090 16.3514 -1.7923 -1.5825 31.7949 35.7196 19.6517 -72.9696 1.7128 -27.4638 2.6322 0.0000 9.3481 0.6073 -4.6890 7.3877 33.1476 -0.0000 26.2537 -8.9861 -5.2694 -34.4562 -18.7302 -0.4619 34.0534 0.1528 -0.0000 16.2298 -0.0219 0.9319 1.3432 32.8623 0.0000 -24.3270 -6.1391 -0.7368 1.9320 -2.9129 -0.0000 -0.0000 -3.5037 9.4898 -17.0840 -5.3415 0.0000 -0.0000 -5.9716 -2.3536 -0.5451 -3.9904 -0.0000 0.0000 -5.2879 -8.8327 4.3360 0.8390 0.0000 -0.0000
 2.6681 32.7584 -7.5638 11.5723 2.5484 -0.9326 -13.7515 -5.8000 -1.4015 16.5577 -1.7674 -1.6008 31.8011 35.6917 19.6438 -73.0508 1.7450 -27.5711 2.7457 0.0000 9.3444 0.5965 -4.6756 7.2782 33.1476 -0.0000 26.2537 -8.9571 -5.2785 -34.4236 -18.7376 -0.4488 34.1258 0.0914 -0.0000 16.1625 -0.0213 0.8601 1.4171 32.8623 0.0000 -24.3270 -6.1355 -0.7209 1.9162 -2.9059 0.0000 0.0000 -3.5088 9.4645 -17.0722 -5.3143 -0.0000 0.0000 -5.9644 -2.3447 -0.5564 -3.9921 -0.0000 0.0000 -5.2858 -8.8548 4.3095 0.8123 -0.0000 0.0000
 2.6723 32.7581 -7.5659 11.5653 2.5644 -0.9241 -13.7588 -5.7971 -1.3974 16.7547 -1.7696 -1.6223 31.8344 35.6786 19.6337 -73.0462 1.7299 -27.7060 2.8533 0.0000 9.1299 0.5730 -4.6042 7.1017 33.1476 -0.0000 26.2537 -8.9442 -5.2869 -34.4073 -18.7393 -0.4455 34.2120 0.0203 -0.0000 16.0888 -0.0224 0.9332 1.3765 32.8623 0.0000 -24.3270 -6.1316 -0.7324 1.8984 -2.9104 0.0000 0.0000 -3.5042 9.4596 -17.0786 -5.3315 -0.0000 0.0000 -5.9556 -2.3517 -0.5751 -3.9987 -0.0000 0.0000 -5.2873 -8.8576 4.3016 0.8234 0.0000 -0.0000
 2.6757 32.7579 -7.5688 11.5572 2.5640 -0.9126 -13.7625 -5.8077 -1.3939 16.9423 -1.7412 -1.6511 31.8742 35.6799 19.6122 -73.0267 1.7227 -27.8217 2.9933 0.0000 8.9675 0.5774 -4.6306 7.1154 33.1476 -0.0000 26.2537 -8.9272 -5.2562 -34.3788 -18.7699 -0.5101 34.2704 0.0117 -0.0000 16.1157 -0.0231 0.8997 1.4725 32.8623 0.0000 -24.3270 -6.1227 -0.7513 1.8825 -2.9218 -0.0000 -0.0000 -3.4907 9.4772 -17.0532 -5.3860 0.0000 -0.0000 -5.9584 -2.3397 -0.5920 -3.9879 0.0000 -0.0000 -5.3015 -8.8739 4.3003 0.8431 0.0000 0.0000
 2.6792 32.7576 -7.5712 11.5461 2.5783 -0.9113 -13.7569 -5.8144 -1.3823 17.1193 -1.7087 -1.6688 31.8841 35.6507 19.6146 -72.9884 1.7236 -27.9044 3.1182 0.0000 8.8990 0.5595 -4.6537 6.8632 33.1476 -0.0000 26.2537 -8.9140 -5.2654 -34.3618 -18.7788 -0.5178 34.3406 -0.0225 -0.0000 16.1185 -0.0250 0.9690 1.4761 32.8623 0.0000 -24.3270 -6.1108 -0.7920 1.8752 -2.9313 0.0000 0.0000 -3.4939 9.5031 -17.0663 -5.3331 0.0000 -0.0000 -5.9384 -2.3141 -0.6008 -4.0108 0.0000 -0.0000 -5.2853 -8.9098 4.2903 0.8509 -0.0000 0.0000
 2.6823 32.7575 -7.5746 11.5392 2.5873 -0.9099 -13.7495 -5.8195 -1.3697 17.2786 -1.6493 -1.6795 31.8999 35.6067 19.6086 -72.9820 1.7293 -27.9504 3.2983 0.0000 8.9028 0.5603 -4.7824 6.6907 33.1476 -0.0000 26.2537 -8.9094 -5.2664 -34.3335 -18.7830 -0.5214 34.3783 -0.0580 -0.0000 16.1288 -0.0263 0.9663 1.5603 32.8623 0.0000 -24.3270 -6.1135 -0.8011 1.8670 -2.9258 0.0000 0.0000 -3.4862 9.4972 -17.0763 -5.3536 -0.0000 -0.0000 -5.9484 -2.3388 -0.6063 -3.9856 0.0000 -0.0000 -5.3030 -8.9000 4.2728 0.8452 -0.0000 0.0000
 2.6846 32.7574 -7.5781 11.5276 2.5985 -0.9098 -13.7322 -5.8229 -1.3635 17.4159 -1.6221 -1.6735 31.9220 35.5939 19.6084 -72.9920 1.7507 -28.0247 3.4122 0.0000 8.9003 0.5539 -4.7831 6.6137 33.1476 -0.0000 26.2537 -8.9069 -5.2781 -34.3112 -18.7832 -0.5241 34.4318 -0.0818 -0.0000 16.1642 -0.0258 0.9163 1.6127 32.8623 0.0000 -24.3270 -6.1134 -0.7907 1.8643 -2.9180 0.0000 0.0000 -3.4825 9.4727 -17.0880 -5.3570 -0.0000 -0.0000 -5.9425 -2.3491 -0.6097 -3.9864 0.0000 0.0000 -5.2967 -8.9056 4.2742 0.8421 0.0000 -0.0000
 2.6887 32.7572 -7.5810 11.5086 2.6068 -0.9006 -13.7044 -5.8281 -1.3592 17.5419 -1.5868 -1.6689 31.9528 35.5868 19.5891 -72.9818 1.7558 -28.0852 3.5036 0.0000 8.8895 0.5417 -4.7685 6.4887 33.1476 -0.0000 26.2537 -8.8832 -5.2966 -34.2890 -18.7787 -0.5085 34.4624 -0.1012 -0.0000 16.1588 -0.0275 0.9665 1.6281 32.8623 0.0000 -24.3270 -6.1014 -0.8050 1.8480 -2.9135 -0.0000 -0.0000 -3.4899 9.4856 -17.0870 -5.2698 0.0000 -0.0000 -5.9304 -2.3431 -0.6273 -3.9808 -0.0000 0.0000 -5.3059 -8.9229 4.2860 0.8528 0.0000 -0.0000
 2.6906 32.7572 -7.5845 11.4989 2.6177 -0.9053 -13.6835 -5.8561 -1.3479 17.6487 -1.5541 -1.6587 31.9795 35.5933 19.5684 -72.9673 1.7759 -28.1366 3.5658 0.0000 8.7932 0.5440 -4.8038 6.4690 33.1476 -0.0000 26.2537 -8.8789 -5.2898 -34.2613 -18.7851 -0.5225 34.4731 -0.0948 -0.0000 16.1965 -0.0270 0.9328 1.6569 32.8623 0.0000 -24.3270 -6.1025 -0.8045 1.8486 -2.9076 -0.0000 -0.0000 -3.4851 9.4731 -17.1003 -5.3024 0.0000 0.0000 -5.9276 -2.3576 -0.6267 -3.9779 -0.0000 -0.0000 -5.3066 -8.9162 4.2751 0.8630 -0.0000 0.0000
 2.6933 32.7574 -7.5870 11.4767 2.6242 -0.8997 -13.6486 -5.8649 -1.3410 17.7457 -1.5404 -1.6611 31.9963 35.5841 19.5482 -72.9634 1.7968 -28.1657 3.6158 0.0000 8.8075 0.5375 -4.7832 6.4189 33.1476 -0.0000 26.2537 -8.8473 -5.3166 -34.2364 -18.8064 -0.5109 34.4716 -0.0847 -0.0000 16.2189 -0.0294 0.9294 1.8092 32.8623 0.0000 -24.3270 -6.0864 -0.8024 1.8385 -2.9047 0.0000 0.0000 -3.4892 9.4646 -17.1083 -5.2818 0.0000 -0.0000 -5.9144 -2.3776 -0.6358 -3.9676 -0.0000 0.0000 -5.3054 -8.9062 4.2579 0.8380 -0.0000 -0.0000
 2.6949 32.7569 -7.5905 11.4669 2.6294 -0.9151 -13.6198 -5.8776 -1.3063 17.8171 -1.5265 -1.6823 32.0206 35.5632 19.5162 -72.9325 1.8106 -28.1348 3.6809 0.0000 9.1719 0.5282 -4.9494 6.0996 33.1476 -0.0000 26.2537 -8.8465 -5.3277 -34.2414 -18.7737 -0.4868 34.4841 -0.0832 -0.0000 16.1865 -0.0298 0.9172 1.8626 32.8623 0.0000 -24.3270 -6.1268 -0.6748 1.8451 -2.8223 0.0000 -0.0000 -3.5440 9.3344 -17.0982 -5.3235 -0.0000 0.0000 -5.9105 -2.3815 -0.6253 -3.9649 -0.0000 0.0000 -5.3067 -8.9053 4.2865 0.8732 -0.0000 -0.0000
 2.6962 32.7575 -7.5939 11.4565 2.6263 -0.9205 -13.5947 -5.8845 -1.2858 17.8860 -1.5098 -1.6873 31.9966 35.5326 19.5165 -72.8928 1.8521 -28.1199 3.6885 0.0000 9.2064 0.5277 -5.0041 6.0275 33.1476 -0.0000 26.2537 -8.8119 -5.3368 -34.2090 -18.7859 -0.4896 34.4425 -0.0388 -0.0000 16.1125 -0.0230 0.6928 1.9003 32.8623 0.0000 -24.3270 -6.1337 -0.6248 1.8496 -2.8029 0.0000 0.0000 -3.5376 9.2788 -17.1134 -5.3502 -0.0000 0.0000 -5.9056 -2.3807 -0.6202 -3.9700 -0.0000 -0.0000 -5.2861 -8.9186 4.3092 0.8808 -0.0000 0.0000
 2.6997 32.7581 -7.5974 11.4534 2.6303 -0.9164 -13.5743 -5.9067 -1.2782 17.9394 -1.4608 -1.6895 32.0279 35.5568 19.4748 -72.9232 1.8793 -28.1311 3.6793 0.0000 9.2082 0.5296 -4.9633 6.0978 33.1476 -0.0000 26.2537 -8.8121 -5.3406 -34.2028 -18.7820 -0.4739 34.4289 -0.0415 -0.0000 16.0984 -0.0217 0.6587 1.8880 32.8623 0.0000 -24.3270 -6.1425 -0.6126 1.8374 -2.7908 -0.0000 -0.0000 -3.5507 9.2655 -17.1126 -5.2898 0.0000 -0.0000 -5.9070 -2.3850 -0.6325 -3.9714 -0.0000 -0.0000 -5.2844 -8.9097 4.2998 0.8816 -0.0000 0.0000
 2.7028 32.7588 -7.6009 11.4548 2.6260 -0.9098 -13.5604 -5.9157 -1.2712 17.9889 -1.4363 -1.6943 32.0241 35.5412 19.4621 -72.9013 1.9235 -28.0974 3.6520 0.0000 9.2561 0.5289 -4.9685 6.0844 33.1476 -0.0000 26.2537 -8.8387 -5.3325 -34.2129 -18.7740 -0.4712 34.4264 -0.0572 -0.0000 15.9720 -0.0193 0.6210 1.7794 32.8623 0.0000 -24.3270 -6.1380 -0.6330 1.8260 -2.8144 -0.0000 0.0000 -3.5282 9.2930 -17.1264 -5.2588 -0.0000 0.0000 -5.9215 -2.4111 -0.6435 -3.9605 0.0000 -0.0000 -5.2771 -8.8864 4.3114 0.8867 -0.0000 -0.0000
 2.7063 32.7599 -7.6048 11.4564 2.6244 -0.8949 -13.5452 -5.9226 -1.2768 18.0235 -1.4055 -1.6863 32.0144 35.5444 19.4528 -72.9090 1.9725 -28.0810 3.5987 0.0000 9.2340 0.5287 -4.9034 6.1616 33.1476 -0.0000 26.2537 -8.8542 -5.3287 -34.2100 -18.7918 -0.4889 34.3877 -0.0585 -0.0000 16.0818 -0.0189 0.5740 1.8817 32.8623 0.0000 -24.3270 -6.1078 -0.7512 1.8081 -2.8895 0.0000 -0.0000 -3.4619 9.4135 -17.1054 -5.2747 0.0000 -0.0000 -5.9327 -2.4132 -0.6668 -3.9569 -0.0000 0.0000 -5.2751 -8.8770 4.3368 0.9027 -0.0000 0.0000
 2.7080 32.7602 -7.6080 11.4602 2.6216 -0.9023 -13.5308 -5.9563 -1.2638 18.0494 -1.3703 -1.6791 32.0224 35.5720 19.4300 -72.8942 1.9994 -28.0557 3.5593 0.0000 9.2263 0.5307 -4.8675 6.2302 33.1476 -0.0000 26.2537 -8.8691 -5.3073 -34.2158 -18.8033 -0.4969 34.3592 -0.0655 -0.0000 16.0544 -0.0184 0.6078 1.7356 32.8623 0.0000 -24.3270 -6.1285 -0.7089 1.8096 -2.8651 -0.0000 0.0000 -3.4867 9.3886 -17.1195 -5.2052 -0.0000 0.0000 -5.9435 -2.4310 -0.6596 -3.9564 0.0000 -0.0000 -5.2700 -8.8707 4.3420 0.9109 0.0000 -0.0000
 2.7096 32.7609 -7.6115 11.4643 2.6098 -0.9043 -13.5174 -5.9537 -1.2576 18.0738 -1.3472 -1.6570 32.0218 35.5751 19.4286 -72.8996 2.0333 -28.0371 3.5153 0.0000 9.0312 0.5445 -4.8277 6.4425 33.1476 -0.0000 26.2537 -8.8984 -5.3026 -34.2223 -18.7985 -0.5070 34.3272 -0.0585 -0.0000 16.0368 -0.0198 0.6013 1.8836 32.8623 0.0000 -24.3270 -6.1408 -0.6794 1.8093 -2.8604 -0.0000 0.0000 -3.4849 9.3588 -17.1016 -5.2354 -0.0000 0.0000 -5.9567 -2.4275 -0.6599 -3.9519 -0.0000 0.0000 -5.2561 -8.8547 4.3368 0.8770 -0.0000 -0.0000
 2.7072 32.7608 -7.6156 11.4719 2.6076 -0.9357 -13.5010 -5.9712 -1.2269 18.0776 -1.3311 -1.6361 31.9880 35.5674 19.4465 -72.8464 2.0584 -27.9839 3.4594 0.0000 9.0543 0.5420 -4.7578 6.5067 33.1476 -0.0000 26.2537 -8.9055 -5.3104 -34.2335 -18.8040 -0.4966 34.2935 -0.0682 -0.0000 16.0044 -0.0195 0.6066 1.8420 32.8623 0.0000 -24.3270 -6.1077 -0.8524 1.8406 -2.9482 0.0000 0.0000 -3.4576 9.5563 -17.0265 -5.2073 0.0000 0.0000 -5.9697 -2.4195 -0.6227 -3.9520 -0.0000 -0.0000 -5.2479 -8.8750 4.3246 0.9007 0.0000 0.0000
